{"title":"In.The.Cut.[2003].DvdRip.XviD-KnÃƒÂ£","uid":6362312,"size":939347968,"categoryP":"video","categoryS":"movies","magnet":"?xt=urn:btih:4ce98032056c1510ed54eb1333fa2c9f45cea025&amp;dn=In.The.Cut.%5B2003%5D.DvdRip.XviD-Kn%C3%83%C2%A3&amp;tr=udp%3A%2F%2Ftracker.openbittorrent.com%3A80&amp;tr=udp%3A%2F%2Fopen.demonii.com%3A1337&amp;tr=udp%3A%2F%2Ftracker.coppersurfer.tk%3A6969&amp;tr=udp%3A%2F%2Fexodus.desync.com%3A6969","seeders":1,"leechers":0,"uploader":"Jon.Pson","files":1,"time":1304378226,"description":"A New York writing professor, Frannie Avery (Ryan), has an erotic affair with a police detective (Ruffalo) investigating a murder in her neighborhood of a beautiful young woman.\n\n\nGeneral\nComplete name                    : H:\\Movies\\In.The.Cut.[2003].DvdRip.XviD-KnÃƒÂ£\\In.The.Cut.[2003].DvdRip.avi\nFormat                           : AVI\nFormat/Info                      : Audio Video Interleave\nFile size                        : 896 MiB\nDuration                         : 1h 53mn\nOverall bit rate                 : 1 100 Kbps\nWriting application              : VirtualDubMod 1.5.4.1 (build 2178/release)\nWriting library                  : VirtualDubMod build 2178/release\n\nVideo\nID                               : 0\nFormat                           : MPEG-4 Visual\nFormat profile                   : Advanced Simple@L5\nFormat settings, BVOP            : Yes\nFormat settings, QPel            : No\nFormat settings, GMC             : No warppoints\nFormat settings, Matrix          : Default (H.263)\nMuxing mode                      : Packed bitstream\nCodec ID                         : XVID\nCodec ID/Hint                    : XviD\nDuration                         : 1h 53mn\nBit rate                         : 644 Kbps\nWidth                            : 608 pixels\nHeight                           : 336 pixels\nDisplay aspect ratio             : 16:9\nFrame rate                       : 25.000 fps\nColor space                      : YUV\nChroma subsampling               : 4:2:0\nBit depth                        : 8 bits\nScan type                        : Progressive\nBits/(Pixel*Frame)               : 0.126\nStream size                      : 525 MiB (59%)\nWriting library                  : XviD 58\n\nAudio\nID                               : 1\nFormat                           : AC-3\nFormat/Info                      : Audio Coding 3\nMode extension                   : CM (complete main)\nCodec ID                         : 2000\nDuration                         : 1h 53mn\nBit rate mode                    : Constant\nBit rate                         : 448 Kbps\nChannel(s)                       : 6 channels\nChannel positions                : Front: L C R, Side: L R, LFE\nSampling rate                    : 48.0 KHz\nBit depth                        : 16 bits\nStream size                      : 365 MiB (41%)\nAlignment                        : Split accross interleaves\nInterleave, duration             : 80 ms (2.00 video frames)\nInterleave, preload duration     : 500 ms\nLanguage                         : English","torrent":{"xt":"urn:btih:4ce98032056c1510ed54eb1333fa2c9f45cea025","amp;dn":"In.The.Cut.%5B2003%5D.DvdRip.XviD-Kn%C3%83%C2%A3","amp;tr":["udp%3A%2F%2Ftracker.openbittorrent.com%3A80","udp%3A%2F%2Fopen.demonii.com%3A1337","udp%3A%2F%2Ftracker.coppersurfer.tk%3A6969","udp%3A%2F%2Fexodus.desync.com%3A6969"],"infoHash":"4ce98032056c1510ed54eb1333fa2c9f45cea025","infoHashBuffer":{"type":"Buffer","data":[76,233,128,50,5,108,21,16,237,84,235,19,51,250,44,159,69,206,160,37]},"announce":[],"urlList":[]}}